<svg xmlns="http://www.w3.org/2000/svg" viewBox="0 0 64 64" role="img" aria-label="TaskFlow">
  <defs>
    <linearGradient id="tile" x1="10" y1="6" x2="56" y2="60" gradientUnits="userSpaceOnUse">
      <stop stop-color="#172033"/>
      <stop offset="1" stop-color="#070d1a"/>
    </linearGradient>
    <linearGradient id="clip" x1="23" y1="8" x2="42" y2="22" gradientUnits="userSpaceOnUse">
      <stop stop-color="#8b5cf6"/>
      <stop offset="1" stop-color="#4f46e5"/>
    </linearGradient>
    <linearGradient id="ok" x1="37" y1="36" x2="58" y2="58" gradientUnits="userSpaceOnUse">
      <stop stop-color="#3b82f6"/>
      <stop offset="1" stop-color="#4f46e5"/>
    </linearGradient>
    <linearGradient id="smallOk" x1="14" y1="22" x2="25" y2="33" gradientUnits="userSpaceOnUse">
      <stop stop-color="#34d399"/>
      <stop offset="1" stop-color="#10b981"/>
    </linearGradient>
    <filter id="shadow" x="-20%" y="-20%" width="140%" height="140%">
      <feDropShadow dx="0" dy="2" stdDeviation="2" flood-color="#020617" flood-opacity=".35"/>
    </filter>
  </defs>

  <rect width="64" height="64" rx="15" fill="url(#tile)"/>

  <g filter="url(#shadow)">
    <rect x="16" y="16" width="32" height="39" rx="6" fill="#f8fafc"/>
    <rect x="23" y="12" width="18" height="8" rx="2.5" fill="url(#clip)"/>
    <circle cx="32" cy="12" r="5" fill="url(#clip)"/>
    <circle cx="32" cy="12" r="2.4" fill="#111827"/>
  </g>

  <circle cx="21.5" cy="27.5" r="6.5" fill="url(#smallOk)"/>
  <path d="M18.4 27.5l2 2 4.4-4.6" fill="none" stroke="#fff" stroke-width="3" stroke-linecap="round" stroke-linejoin="round"/>

  <circle cx="21.5" cy="40.5" r="6.5" fill="#2563eb"/>
  <path d="M18.4 40.4l2 2 4.4-4.5" fill="none" stroke="#fff" stroke-width="3" stroke-linecap="round" stroke-linejoin="round"/>

  <circle cx="21.5" cy="50.5" r="5.2" fill="none" stroke="#6d5dfc" stroke-width="3"/>

  <path d="M31 26h12M31 30h8M31 39h12M31 43h8M31 51h8" stroke="#334155" stroke-width="2.7" stroke-linecap="round"/>

  <circle cx="47.5" cy="48" r="12" fill="url(#ok)" filter="url(#shadow)"/>
  <path d="M42 48l4 4 8-8.5" fill="none" stroke="#fff" stroke-width="4" stroke-linecap="round" stroke-linejoin="round"/>
</svg>
